<?xml version="1.0" standalone="no"?>
<!DOCTYPE svg PUBLIC "-//W3C//DTD SVG 20010904//EN"
 "http://www.w3.org/TR/2001/REC-SVG-20010904/DTD/svg10.dtd">
<svg version="1.0" xmlns="http://www.w3.org/2000/svg"
 width="558.000000pt" height="558.000000pt" viewBox="0 0 558.000000 558.000000"
 preserveAspectRatio="xMidYMid meet">
<metadata>
Created by potrace 1.14, written by Peter Selinger 2001-2017
</metadata>
<g transform="translate(0.000000,558.000000) scale(0.100000,-0.100000)"
fill="#000000" stroke="none">
<path d="M2145 5444 c-49 -7 -110 -20 -135 -28 -25 -8 -63 -18 -85 -22 -84
-15 -269 -104 -370 -177 -107 -78 -166 -133 -212 -199 -38 -54 -42 -66 -41
-117 1 -46 -5 -68 -29 -112 -58 -105 -91 -208 -98 -308 -6 -79 -11 -98 -36
-135 -51 -77 -89 -157 -89 -191 0 -115 58 -246 166 -375 88 -104 205 -220 267
-263 26 -17 47 -35 47 -39 0 -4 -19 -12 -42 -18 -24 -6 -77 -24 -118 -39 -41
-16 -106 -39 -145 -51 -164 -52 -501 -210 -535 -251 -3 -3 -48 -35 -101 -71
l-97 -66 -88 -7 c-178 -13 -195 -37 -120 -168 54 -94 52 -107 -29 -182 -52
-49 -81 -107 -69 -140 10 -24 65 -36 224 -51 85 -7 191 -18 235 -25 52 -7 133
-9 230 -4 83 4 170 8 195 9 l45 1 -3 -120 c-2 -89 3 -163 22 -288 l24 -168
-62 -87 c-83 -116 -184 -287 -198 -337 -6 -22 -21 -71 -34 -110 -39 -117 -54
-348 -29 -448 5 -20 1 -31 -19 -49 -61 -55 -166 -161 -166 -169 0 -10 21 -16
88 -24 28 -4 52 -10 52 -15 0 -4 -11 -33 -25 -63 -27 -61 -21 -76 23 -59 22 8
132 27 212 35 9 1 13 -4 11 -13 -33 -135 -19 -154 79 -109 67 31 365 138 483
173 83 25 115 57 132 134 23 99 88 213 135 237 23 12 35 12 86 -1 32 -9 68
-21 79 -29 32 -20 170 -47 285 -55 68 -4 126 -15 164 -29 40 -15 83 -22 137
-23 l78 -1 26 -58 c14 -32 45 -118 69 -191 35 -108 45 -154 51 -240 10 -144
10 -145 110 -119 120 32 190 26 240 -18 11 -10 36 -27 55 -37 19 -10 43 -25
52 -33 31 -25 87 -5 144 51 66 64 104 70 218 34 125 -39 149 -10 98 122 -17
42 -31 93 -31 113 0 21 -1 41 -2 45 -1 5 -1 55 0 112 1 117 6 123 75 103 89
-25 377 -83 491 -98 100 -13 145 -14 270 -4 149 10 174 16 330 74 167 61 332
186 401 304 48 80 92 188 100 240 37 270 25 358 -75 545 -65 121 -123 176
-252 240 -153 75 -292 86 -479 38 -124 -32 -235 -89 -316 -160 -87 -78 -111
-105 -186 -210 -113 -157 -333 -390 -369 -390 -12 0 -11 17 1 25 19 11 129
245 150 317 12 40 27 87 35 103 7 17 17 48 20 70 4 22 16 74 27 115 26 103 42
344 35 535 -7 195 -28 313 -76 420 -10 22 -23 62 -30 88 -14 56 -130 307 -142
307 -5 0 -15 16 -23 35 -9 20 -35 61 -59 93 -24 31 -55 75 -69 97 -14 22 -62
77 -107 121 l-81 81 0 54 c0 30 -4 60 -9 68 -6 9 1 35 18 75 15 33 38 95 50
136 13 41 28 91 34 110 13 43 11 287 -3 379 -31 194 -139 416 -275 561 -28 30
-59 65 -67 78 -29 44 -173 143 -283 196 -245 118 -460 156 -690 120z m285 -19
c155 -21 232 -45 385 -122 178 -89 222 -121 313 -222 191 -213 258 -350 308
-630 30 -170 0 -400 -72 -544 -13 -27 -24 -52 -24 -56 0 -22 -90 -161 -130
-201 -206 -209 -398 -321 -609 -356 -154 -25 -276 -28 -411 -9 -68 9 -127 18
-131 20 -3 2 -19 6 -35 9 -28 5 -110 27 -219 59 -27 8 -81 32 -120 53 -38 21
-88 47 -110 58 -98 50 -296 238 -372 354 -21 31 -41 59 -46 60 -17 8 -82 160
-72 170 2 3 25 -1 50 -7 32 -8 56 -23 78 -48 18 -20 58 -53 90 -74 57 -37 58
-37 105 -24 73 20 132 43 181 71 68 38 140 47 236 29 44 -8 112 -17 150 -20
39 -4 122 -13 185 -21 452 -58 527 -63 629 -39 71 17 161 63 161 83 0 17 -5
16 -48 -12 -65 -43 -152 -59 -285 -52 -119 6 -307 25 -317 31 -4 2 -51 9 -106
14 -54 6 -112 13 -129 16 -16 2 -61 6 -100 10 -38 3 -118 12 -178 21 l-107 16
-63 -35 c-34 -19 -101 -49 -149 -65 -112 -40 -134 -35 -225 56 -49 48 -76 67
-98 70 -68 6 -75 10 -75 47 0 36 47 155 61 155 5 0 9 6 9 14 0 8 7 22 16 31
15 15 18 14 35 -14 19 -31 33 -36 63 -25 21 8 52 109 90 294 39 183 61 359 47
373 -8 8 -11 6 -11 -8 0 -22 -28 -55 -47 -55 -9 0 -12 8 -7 28 25 107 246 295
457 387 162 70 306 105 517 124 8 0 67 -6 130 -14z m-1071 -633 c-15 -107 -21
-121 -43 -103 -11 9 -16 30 -16 66 0 42 6 60 31 94 17 24 33 41 35 38 3 -2 -1
-45 -7 -95z m-118 -169 c-14 -64 -17 -105 -8 -120 4 -6 11 -38 15 -72 15 -110
-9 -162 -35 -75 -20 68 -14 161 18 282 16 57 24 45 10 -15z m2108 -918 c1 -16
-10 -63 -24 -102 -41 -121 -42 -155 -8 -278 4 -15 -2 -13 -24 11 -33 35 -126
74 -177 74 -39 0 -60 21 -51 49 3 12 40 51 81 88 41 38 100 103 132 145 60 81
70 83 71 13z m118 -180 c84 -98 156 -194 191 -254 14 -26 35 -59 47 -76 12
-16 27 -43 34 -60 7 -16 17 -38 22 -47 5 -10 18 -41 29 -70 l19 -53 -54 59
c-30 32 -52 63 -48 69 3 6 1 7 -4 4 -6 -4 -18 2 -28 13 -10 11 -14 20 -9 20
19 0 -48 51 -69 53 -12 1 -38 12 -57 24 -19 11 -65 32 -102 44 -73 26 -78 32
-98 119 -14 66 -12 136 6 202 20 69 21 69 121 -47z m-1864 -90 c28 -11 13 -52
-36 -101 -76 -75 -239 -307 -284 -404 -46 -98 -104 -251 -110 -287 -3 -21 -10
-43 -14 -49 -5 -6 -12 -33 -15 -60 -4 -27 -10 -56 -15 -65 -18 -35 -359 -52
-549 -28 -235 29 -370 57 -370 75 0 13 31 64 44 71 48 28 90 78 97 116 7 38 4
47 -42 115 -41 61 -48 76 -39 93 16 29 50 39 151 44 97 6 93 4 270 132 26 18
50 33 54 33 4 0 52 25 107 56 133 75 247 121 603 244 77 27 109 30 148 15z
m1427 -5 c0 -12 -7 -20 -17 -20 -10 0 -29 -3 -43 -6 -22 -6 -20 -3 10 19 43
31 50 32 50 7z m-1130 -116 c356 -80 484 -86 780 -38 l35 5 -31 -28 c-82 -74
-187 -245 -248 -403 -12 -30 -28 -57 -36 -59 -59 -13 -238 -7 -365 14 -178 30
-201 34 -252 51 -23 7 -54 16 -68 18 -98 18 -254 104 -305 168 l-21 28 39 57
c55 81 189 234 220 253 25 15 30 15 107 -18 44 -18 109 -40 145 -48z m1245 64
c75 -19 169 -90 224 -169 28 -40 51 -81 51 -91 0 -10 7 -33 16 -49 29 -56 37
-162 19 -253 -36 -190 -78 -275 -218 -441 -72 -86 -102 -113 -192 -173 -119
-80 -190 -105 -294 -105 -105 0 -180 18 -294 69 -72 33 -110 44 -146 44 -62 0
-81 7 -81 31 0 26 60 116 109 164 18 18 25 36 27 72 2 47 43 208 79 308 10 28
43 100 73 160 130 264 208 343 417 423 56 22 149 26 210 10z m309 -162 c30
-12 90 -52 169 -110 54 -40 169 -161 195 -205 93 -159 135 -416 111 -684 -8
-93 -14 -117 -45 -180 -20 -40 -60 -103 -89 -142 -51 -68 -216 -235 -233 -235
-4 0 -14 28 -21 62 -7 34 -20 83 -29 108 -20 58 -19 301 3 415 39 209 47 267
47 365 1 118 -13 209 -42 272 -11 24 -20 61 -20 82 0 52 -13 94 -59 189 -21
42 -34 77 -29 77 5 0 24 -6 42 -14z m191 -70 c11 -8 16 -15 10 -16 -5 0 -23
12 -40 26 -31 26 -6 18 30 -10z m-2230 -151 c14 -13 25 -22 25 -20 0 2 26 -11
58 -29 31 -18 66 -37 77 -44 11 -6 36 -17 55 -25 19 -8 48 -19 63 -26 15 -6
41 -11 56 -11 15 0 52 -8 82 -19 30 -10 76 -21 102 -25 59 -9 67 -26 56 -116
-5 -36 -13 -123 -19 -195 -5 -71 -14 -159 -20 -195 -5 -36 -12 -114 -16 -175
-4 -60 -11 -116 -17 -123 -11 -14 -35 -12 -157 8 -88 15 -399 86 -407 94 -3 2
-48 128 -119 325 -24 68 -44 135 -44 147 0 78 114 380 162 431 27 29 33 29 63
-2z m2106 -233 c23 -131 9 -333 -34 -502 -29 -116 -29 -326 1 -450 25 -106 66
-251 86 -307 19 -53 7 -56 -22 -5 -36 63 -130 151 -201 187 l-66 33 -27 89
c-36 120 -52 238 -44 325 11 105 42 217 71 252 45 54 119 170 137 211 45 109
62 163 64 200 3 59 4 62 15 42 5 -9 15 -43 20 -75z m-1248 -4 c114 0 128 -2
124 -17 -33 -110 -57 -213 -57 -241 0 -24 -12 -52 -40 -90 -21 -30 -58 -85
-81 -123 -40 -65 -41 -68 -24 -87 14 -15 28 -18 73 -16 62 4 107 -7 192 -46
67 -31 122 -53 135 -54 36 -2 95 -17 95 -24 0 -18 -45 -116 -58 -127 -18 -15
-354 -11 -472 6 -41 5 -96 13 -123 16 -95 11 -94 11 -85 112 4 48 13 129 19
178 6 50 13 117 15 150 6 74 23 232 33 302 10 73 21 82 79 71 26 -5 105 -10
175 -10z m-1058 -363 c21 -55 41 -104 45 -110 4 -5 17 -39 30 -73 31 -89 29
-159 -7 -273 -17 -52 -37 -116 -45 -144 l-14 -50 -18 50 c-62 178 -87 484 -51
633 10 40 19 71 21 70 1 -2 19 -48 39 -103z m1990 -147 c-27 -122 -15 -364 23
-465 l19 -51 -36 -6 c-20 -3 -61 -6 -92 -6 -55 0 -135 -22 -194 -54 -16 -9
-35 -16 -41 -16 -21 0 -144 153 -200 248 -20 33 -20 38 -7 71 30 72 48 88 106
95 30 3 80 17 111 31 31 14 61 25 66 25 6 0 29 14 52 30 22 17 46 30 52 30 6
0 37 23 69 50 69 59 82 62 72 18z m-1745 -208 c134 -34 258 -60 335 -70 50 -7
97 -16 106 -21 14 -7 17 -47 23 -291 3 -156 9 -294 11 -308 3 -14 2 -31 -3
-38 -8 -12 -90 -45 -267 -108 l-70 -25 -20 24 c-11 14 -41 49 -66 78 -73 86
-157 213 -214 320 l-52 100 18 75 c23 96 77 264 90 280 7 9 19 10 42 2 18 -5
48 -14 67 -18z m3471 -45 c153 -40 249 -111 329 -245 72 -118 91 -181 95 -315
8 -257 -68 -459 -223 -593 -73 -63 -124 -90 -187 -97 -61 -8 -189 17 -260 49
-69 32 -187 127 -206 167 -43 88 -49 139 -35 270 6 57 13 73 51 122 104 131
309 163 421 65 19 -17 34 -36 34 -43 0 -8 5 -17 10 -20 24 -15 7 37 -22 71
-62 71 -184 100 -280 68 -155 -51 -243 -162 -255 -319 -13 -169 74 -305 261
-409 53 -30 165 -55 233 -52 53 2 42 -4 -79 -48 -140 -50 -212 -61 -403 -61
-127 0 -191 5 -255 18 -47 10 -137 30 -200 43 -97 21 -145 32 -246 59 -7 2
-11 58 -12 162 -1 147 -11 266 -27 304 -4 11 15 33 67 77 100 84 169 150 198
192 13 19 27 37 30 40 4 3 44 55 90 115 90 116 206 238 275 285 56 39 102 56
219 84 55 14 110 27 121 30 36 9 190 -2 256 -19z m-1027 -43 c-4 -15 -8 -34
-10 -42 -31 -175 -146 -488 -218 -594 l-19 -28 -14 33 c-7 18 -16 60 -20 94
-3 33 -13 78 -20 100 -37 102 -43 86 72 204 99 101 224 254 226 276 0 6 3 4 6
-3 3 -7 2 -25 -3 -40z m-1749 -37 c61 -8 187 -14 282 -15 95 0 183 -4 197 -10
22 -8 93 -91 185 -215 l34 -46 -41 -42 c-108 -112 -230 -326 -261 -459 l-16
-66 -55 18 c-30 10 -82 25 -115 35 -78 21 -170 59 -220 90 -22 14 -62 35 -90
49 -78 37 -84 48 -96 172 -11 120 -19 433 -11 484 5 32 5 32 51 26 25 -4 96
-13 156 -21z m-952 -187 c49 -121 211 -389 272 -452 6 -6 38 -41 71 -77 66
-73 158 -153 227 -197 37 -23 43 -31 36 -49 -4 -11 -13 -24 -19 -28 -30 -19
-103 -175 -115 -248 -6 -35 -11 -41 -68 -68 -34 -16 -67 -29 -73 -29 -13 0
-159 -46 -189 -60 -11 -5 -38 -14 -60 -21 -22 -6 -78 -27 -125 -46 -123 -51
-142 -56 -136 -35 2 9 8 42 11 72 4 30 13 65 21 77 21 34 0 36 -25 3 -16 -22
-30 -30 -52 -30 -17 0 -38 -4 -47 -9 -31 -16 -132 -24 -132 -10 0 16 48 117
71 151 32 44 21 44 -23 1 -43 -42 -43 -42 -100 -36 -32 3 -58 9 -58 12 0 7 54
59 112 110 15 13 37 24 50 25 24 1 26 9 13 71 -6 34 -7 289 0 319 36 166 72
280 93 296 4 3 20 32 35 65 52 109 154 255 178 255 4 0 18 -28 32 -62z m2062
-42 c28 -7 68 -21 90 -30 78 -33 179 -153 220 -261 14 -38 35 -92 45 -120 39
-100 51 -240 51 -562 l-1 -302 30 -91 c16 -50 30 -95 30 -100 0 -15 -91 -12
-153 4 -81 21 -170 -3 -197 -53 -5 -10 -24 -25 -42 -35 l-34 -18 -80 43 c-43
23 -92 49 -107 57 -45 22 -102 26 -154 9 -26 -8 -63 -18 -80 -22 -30 -6 -33
-4 -34 17 -1 13 -1 26 0 30 4 27 -32 242 -46 274 -9 22 -17 44 -19 49 -9 47
-73 203 -125 305 l-64 124 0 96 c0 91 2 99 39 175 48 97 142 245 156 245 6 0
10 6 10 13 0 17 111 104 157 123 102 43 218 54 308 30z m-1276 -420 c7 -8 31
-24 54 -35 23 -12 62 -34 87 -49 55 -34 116 -58 287 -112 73 -23 136 -47 140
-53 11 -17 34 -79 36 -97 3 -24 -103 -41 -259 -42 -183 0 -290 25 -480 113
-23 10 -45 19 -49 19 -8 0 -139 102 -167 131 -21 22 -26 18 97 63 55 21 116
43 135 51 67 27 103 30 119 11z m641 -405 c21 -40 14 -44 -64 -38 -104 8 -126
22 -55 35 30 6 63 13 74 15 11 3 23 5 27 6 4 0 12 -8 18 -18z"/>
<path d="M2464 5044 c-55 -37 -84 -65 -78 -76 3 -5 28 12 56 37 28 25 56 45
64 45 8 0 14 5 14 10 0 16 -14 12 -56 -16z"/>
<path d="M1477 4993 c-21 -40 -30 -73 -20 -73 10 0 47 89 40 96 -3 3 -12 -7
-20 -23z"/>
<path d="M2583 4950 c-167 -39 -294 -277 -296 -553 -1 -142 10 -155 148 -173
206 -27 250 -30 240 -15 -3 5 4 33 16 63 61 155 83 253 83 380 1 58 4 104 7
102 13 -8 21 -101 20 -229 -1 -140 -23 -259 -57 -296 -9 -10 -14 -22 -10 -26
18 -19 62 78 86 187 15 69 12 244 -6 339 -23 125 -68 195 -143 220 -38 12 -42
12 -88 1z m77 -25 c65 -34 81 -149 28 -202 -51 -51 -174 -31 -198 33 -31 81 9
154 95 175 44 10 43 10 75 -6z m65 -476 c-22 -89 -66 -208 -79 -216 -24 -16
-265 19 -302 43 l-24 16 37 25 36 25 38 -21 c44 -25 62 -26 79 -6 7 8 20 15
29 15 10 0 28 11 41 25 13 14 29 25 35 25 7 0 24 27 39 59 19 44 34 62 54 69
15 5 28 8 30 7 2 -2 -4 -31 -13 -66z"/>
<path d="M1207 4203 c-11 -10 -8 -43 3 -43 6 0 10 11 10 25 0 26 -2 29 -13 18z"/>
<path d="M1500 4160 c-18 -18 -27 -40 -15 -40 5 0 55 50 55 55 0 12 -22 3 -40
-15z"/>
<path d="M3449 3260 c40 -17 88 -40 105 -51 29 -20 29 -19 -4 10 -43 37 -83
57 -135 65 -33 5 -26 1 34 -24z"/>
<path d="M580 2839 c-42 -49 -80 -116 -80 -140 0 -41 123 -91 186 -75 28 7 28
8 10 22 -11 8 -32 14 -46 14 -34 0 -91 19 -109 36 -18 17 -5 48 50 120 21 28
39 54 39 57 0 16 -18 4 -50 -34z"/>
<path d="M2604 2611 c-45 -33 -124 -127 -124 -147 0 -16 17 -19 22 -4 7 20
151 159 159 154 11 -7 43 -76 58 -129 7 -22 14 -46 17 -53 2 -7 8 -11 13 -8
12 8 -6 101 -30 156 -31 70 -53 76 -115 31z"/>
<path d="M2882 2380 c-19 -4 -39 -13 -45 -20 -10 -10 -4 -11 28 -6 141 22 195
19 195 -10 0 -15 -42 -96 -62 -122 -6 -7 -8 -16 -3 -20 13 -13 82 76 89 115 9
56 -16 73 -103 72 -36 -1 -81 -5 -99 -9z"/>
<path d="M3730 2870 c0 -5 5 -10 10 -10 6 0 10 5 10 10 0 6 -4 10 -10 10 -5 0
-10 -4 -10 -10z"/>
<path d="M3516 2174 c-3 -16 -7 -90 -7 -164 -1 -105 2 -146 16 -185 9 -27 19
-61 21 -75 3 -14 8 -39 13 -55 l8 -30 91 91 c82 82 111 117 82 99 -5 -3 -10
-2 -10 4 0 5 -12 23 -26 38 -36 38 -104 130 -104 141 0 4 -8 17 -17 28 -10 11
-19 24 -20 29 -1 6 -11 32 -21 59 -19 49 -20 49 -26 20z"/>
<path d="M3854 1903 c5 -6 -74 -93 -186 -206 -95 -96 -93 -89 -54 -181 9 -21
16 -54 16 -73 0 -44 20 -123 31 -123 27 0 149 297 199 484 24 90 25 103 5 103
-8 0 -13 -2 -11 -4z"/>
</g>
</svg>
